<?xml version="1.0" standalone="no"?>
<!DOCTYPE svg PUBLIC "-//W3C//DTD SVG 20010904//EN"
 "http://www.w3.org/TR/2001/REC-SVG-20010904/DTD/svg10.dtd">
<svg version="1.0" xmlns="http://www.w3.org/2000/svg"
 width="200.000000pt" height="50.000000pt" viewBox="0 0 200.000000 50.000000"
 preserveAspectRatio="xMidYMid meet">
<metadata>
Created by potrace 1.10, written by Peter Selinger 2001-2011
</metadata>
<g transform="translate(0.000000,50.000000) scale(0.100000,-0.100000)"
fill="#000000" stroke="none">
<path d="M400 255 l0 -215 600 0 600 0 -2 213 -3 212 -597 3 -598 2 0 -215z
m1180 -5 l0 -200 -580 0 -580 0 0 200 0 200 580 0 580 0 0 -200z"/>
<path d="M853 410 c-13 -5 -35 -32 -50 -59 -17 -31 -35 -51 -45 -51 -10 0 -18
-4 -18 -10 0 -5 8 -6 17 -3 13 5 15 3 8 -13 -10 -24 -45 -165 -45 -182 0 -9 4
-10 19 0 13 8 20 28 24 67 4 31 12 74 20 96 11 32 20 41 46 46 34 7 59 24 49
34 -3 3 -18 -1 -34 -10 -39 -20 -43 -3 -9 41 22 28 32 34 51 30 26 -7 42 9 18
18 -19 7 -23 7 -51 -4z"/>
<path d="M1025 390 c-38 -16 -80 -29 -92 -29 -12 -1 -25 -5 -28 -11 -8 -13 45
-3 115 22 116 42 120 42 153 30 33 -12 51 -7 27 8 -28 18 -104 9 -175 -20z"/>
<path d="M1273 389 c-18 -5 -35 -14 -38 -19 -3 -6 -24 -10 -46 -10 -28 0 -38
4 -33 12 5 8 2 9 -10 5 -10 -4 -20 -7 -22 -7 -2 0 -4 -4 -4 -9 0 -5 20 -12 44
-15 32 -5 57 -1 97 14 64 26 115 21 184 -16 26 -14 45 -19 43 -12 -7 19 -88
56 -138 62 -25 3 -59 1 -77 -5z"/>
<path d="M675 372 c-5 -4 -26 -39 -46 -77 -32 -64 -38 -70 -73 -76 -43 -7 -61
-21 -53 -43 8 -21 46 -20 69 1 19 17 22 17 89 -11 10 -4 24 0 35 11 17 17 16
18 -35 26 -51 9 -52 9 -37 30 21 30 86 137 86 143 0 7 -24 4 -35 -4z"/>
<path d="M931 316 c-17 -21 -8 -43 24 -58 25 -11 33 -32 15 -43 -5 -3 -19 -1
-30 5 -16 9 -20 8 -20 -5 0 -10 10 -15 34 -15 62 0 72 47 15 70 -36 15 -32 36
5 33 17 -1 26 2 23 10 -6 18 -52 20 -66 3z"/>
<path d="M1035 315 c-5 -11 -13 -24 -19 -28 -8 -6 -7 -10 2 -14 6 -2 12 -20
12 -39 0 -19 5 -34 10 -34 6 0 10 15 10 34 0 19 6 37 13 39 9 4 9 8 1 14 -7 4
-14 17 -16 28 -5 20 -5 20 -13 0z"/>
<path d="M703 298 c-45 -50 -49 -87 -9 -72 10 4 14 13 11 24 -3 9 4 29 16 43
25 33 11 36 -18 5z"/>
<path d="M825 264 c-37 -40 -33 -64 9 -64 19 0 39 7 47 17 12 15 12 16 -6 9
-31 -12 -37 -12 -42 0 -2 6 11 15 29 20 18 5 34 17 36 27 6 28 -45 21 -73 -9z"/>
<path d="M1090 245 c0 -25 5 -45 10 -45 6 0 10 16 10 35 0 28 4 35 20 35 11 0
20 5 20 10 0 6 -13 10 -30 10 -29 0 -30 -2 -30 -45z"/>
<path d="M1162 278 c-15 -15 -16 -50 0 -66 15 -15 68 -16 68 -1 0 6 -7 9 -15
5 -18 -6 -45 2 -45 15 0 5 14 9 31 9 26 0 30 3 27 23 -3 25 -45 36 -66 15z"/>
<path d="M1255 281 c-4 -7 4 -11 19 -11 14 0 26 -4 26 -10 0 -5 -11 -10 -25
-10 -20 0 -25 -5 -25 -25 0 -22 4 -25 36 -25 l35 0 -3 43 c-3 37 -6 42 -30 45
-14 2 -29 -2 -33 -7z"/>
<path d="M1340 243 c0 -50 17 -59 22 -11 2 22 9 34 21 36 14 3 17 -4 17 -32 0
-45 18 -48 22 -4 2 22 9 34 21 36 14 3 17 -4 17 -32 0 -25 5 -36 15 -36 14 0
14 30 0 76 -2 7 -28 12 -69 11 l-66 0 0 -44z"/>
<path d="M790 145 c0 -10 9 -14 30 -12 39 3 39 27 0 27 -20 0 -30 -5 -30 -15z"/>
<path d="M1310 143 c0 -16 12 -17 29 0 8 6 11 7 8 1 -4 -7 5 -11 23 -11 18 0
30 6 30 13 0 8 -15 12 -45 11 -30 -1 -45 -6 -45 -14z"/>
</g>
</svg>
