 <svg  version="1.0" xmlns="http://www.w3.org/2000/svg"  width="150.000000pt" height="150.000000pt" viewBox="0 0 150.000000 150.000000"  preserveAspectRatio="xMidYMid meet">  <g transform="translate(0.000000,150.000000) scale(0.100000,-0.100000)" fill="#0a9434" stroke="none"> <path d="M70 750 l0 -240 680 0 680 0 0 240 0 240 -680 0 -680 0 0 -240z m1340 0 l0 -230 -665 0 -665 0 0 230 0 230 665 0 665 0 0 -230z"/> <path d="M865 940 c-16 -4 -58 -19 -93 -34 -34 -14 -79 -31 -100 -36 -36 -9 -36 -10 11 -5 26 3 81 19 123 36 74 31 120 35 167 15 10 -5 17 -4 17 2 0 6 -17 16 -37 21 -42 12 -45 12 -88 1z"/> <path d="M568 921 c-13 -11 -35 -40 -48 -64 -13 -25 -35 -49 -49 -55 -25 -10 -25 -10 -3 -11 19 -1 21 -4 12 -20 -12 -23 -50 -177 -50 -204 0 -14 4 -16 19 -8 14 8 22 30 31 93 17 117 30 144 73 152 19 3 42 15 52 26 22 25 7 26 -34 3 -43 -25 -49 -9 -15 40 24 33 37 42 59 42 15 0 30 6 32 13 7 20 -51 15 -79 -7z"/> <path d="M1075 911 c-16 -5 -43 -16 -60 -25 -39 -21 -85 -21 -85 -1 0 13 -4 14 -20 5 -36 -19 -21 -30 44 -30 42 0 79 7 109 20 37 17 53 18 93 11 62 -12 104 -28 127 -48 9 -9 20 -13 24 -9 11 11 -36 44 -87 60 -62 21 -110 26 -145 17z"/> <path d="M385 891 c-11 -5 -26 -26 -34 -47 -8 -21 -27 -60 -43 -86 -24 -39 -35 -48 -58 -48 -36 0 -75 -31 -67 -53 9 -23 49 -21 76 4 22 20 24 21 65 5 54 -21 73 -20 85 3 9 17 6 19 -40 23 -27 3 -52 8 -55 11 -4 3 9 30 28 59 44 66 81 138 71 137 -5 0 -17 -4 -28 -8z m-135 -210 c0 -12 -39 -25 -48 -16 -7 7 17 25 36 25 6 0 12 -4 12 -9z"/> <path d="M455 869 c-12 -19 5 -23 22 -6 16 16 16 17 1 17 -9 0 -20 -5 -23 -11z"/> <path d="M678 829 c-31 -17 -22 -53 17 -72 52 -25 45 -68 -9 -47 -16 6 -27 6 -31 0 -10 -17 46 -33 72 -21 49 22 38 53 -33 98 -16 10 -17 13 -4 22 8 6 25 8 37 4 26 -6 32 12 7 21 -22 8 -36 7 -56 -5z"/> <path d="M413 808 c-23 -26 -43 -61 -43 -77 0 -6 12 -11 26 -11 21 0 24 3 19 20 -4 13 1 34 14 55 23 40 15 46 -16 13z"/> <path d="M780 811 c0 -11 -6 -22 -12 -24 -10 -4 -10 -8 -1 -14 6 -4 13 -26 15 -48 4 -50 22 -48 26 2 2 21 9 42 15 46 9 6 9 10 0 14 -7 2 -13 13 -13 24 0 10 -7 19 -15 19 -8 0 -15 -9 -15 -19z"/> <path d="M572 780 c-42 -26 -60 -63 -42 -85 16 -19 57 -13 80 12 13 14 13 15 -5 8 -33 -12 -50 -11 -50 4 0 8 14 18 31 23 35 9 59 32 49 48 -9 15 -26 12 -63 -10z"/> <path d="M850 740 c0 -58 17 -68 22 -12 2 30 7 38 26 40 35 5 26 22 -13 22 l-35 0 0 -50z"/> <path d="M930 769 c-6 -11 -10 -30 -8 -42 3 -25 48 -50 72 -41 25 10 19 23 -10 21 -15 -1 -29 4 -31 11 -3 8 7 12 31 12 38 0 43 8 26 41 -15 26 -66 26 -80 -2z m60 -9 c0 -5 -9 -10 -20 -10 -11 0 -20 5 -20 10 0 6 9 10 20 10 11 0 20 -4 20 -10z"/> <path d="M1040 780 c0 -5 14 -10 30 -10 17 0 30 -4 30 -10 0 -5 -11 -10 -24 -10 -28 0 -51 -24 -42 -45 3 -10 19 -15 46 -15 40 0 40 0 40 38 0 21 -5 43 -12 50 -14 14 -68 16 -68 2z m48 -66 c-9 -9 -21 -13 -27 -9 -16 10 -3 25 22 25 20 0 20 -1 5 -16z"/> <path d="M1140 740 c0 -39 4 -50 16 -50 11 0 14 6 9 20 -9 30 4 60 26 60 16 0 19 -7 19 -39 0 -55 18 -61 22 -9 2 35 7 43 23 43 16 0 21 -8 23 -35 6 -61 23 -61 20 0 l-3 55 -77 2 -78 3 0 -50z"/> <path d="M608 663 c23 -2 59 -2 80 0 20 2 1 4 -43 4 -44 0 -61 -2 -37 -4z"/> <path d="M813 663 c48 -2 126 -2 175 0 48 1 8 3 -88 3 -96 0 -136 -2 -87 -3z"/> <path d="M1133 663 c31 -2 83 -2 115 0 31 2 5 3 -58 3 -63 0 -89 -1 -57 -3z"/> <path d="M517 643 c-13 -13 -7 -33 11 -33 14 0 15 2 2 10 -10 6 -11 10 -2 10 6 0 12 5 12 10 0 11 -13 13 -23 3z"/> <path d="M821 636 c-8 -10 -8 -16 3 -25 11 -9 14 -7 14 14 0 29 -2 30 -17 11z"/> <path d="M995 637 c-4 -10 -5 -21 -1 -24 10 -10 18 4 13 24 -4 17 -4 17 -12 0z"/> <path d="M1254 635 c-9 -23 10 -40 25 -22 9 11 8 17 -4 27 -12 10 -16 9 -21 -5z"/> <path d="M550 625 c0 -6 7 -12 15 -12 8 0 15 6 15 12 0 6 -7 12 -15 12 -8 0 -15 -6 -15 -12z"/> <path d="M590 625 c0 -8 5 -15 10 -15 6 0 10 7 10 15 0 8 -4 15 -10 15 -5 0 -10 -7 -10 -15z"/> <path d="M643 625 c0 -8 6 -15 13 -15 8 0 11 6 8 15 -4 8 -9 15 -13 15 -4 0 -8 -7 -8 -15z"/> <path d="M727 633 c-12 -11 -8 -23 8 -23 8 0 15 7 15 15 0 16 -12 20 -23 8z"/> <path d="M760 627 c0 -7 9 -13 20 -14 11 -1 20 4 20 13 0 8 -9 14 -20 14 -11 0 -20 -6 -20 -13z"/> <path d="M850 625 c0 -8 5 -15 10 -15 6 0 10 7 10 15 0 8 -4 15 -10 15 -5 0 -10 -7 -10 -15z"/> <path d="M885 632 c-11 -11 -4 -22 15 -22 11 0 20 6 20 13 0 13 -25 19 -35 9z"/> <path d="M960 625 c0 -8 5 -15 10 -15 6 0 10 7 10 15 0 8 -4 15 -10 15 -5 0 -10 -7 -10 -15z"/> <path d="M1056 631 c-7 -11 18 -33 27 -24 4 3 7 12 7 20 0 15 -26 18 -34 4z"/> <path d="M1100 625 c0 -8 5 -15 10 -15 6 0 10 7 10 15 0 8 -4 15 -10 15 -5 0 -10 -7 -10 -15z"/> <path d="M1130 626 c0 -9 14 -13 40 -13 51 0 48 20 -3 24 -25 1 -37 -2 -37 -11z"/> <path d="M1220 625 c0 -8 5 -15 10 -15 6 0 10 7 10 15 0 8 -4 15 -10 15 -5 0 -10 -7 -10 -15z"/> </g> </svg> 